<svg xmlns="http://www.w3.org/2000/svg" width="44" height="44" viewBox="0 0 44 44"><path d="M20.6185 40.3346V31.3971L13.7893 38.2263L11.8185 36.3013L20.6185 27.5013V23.3763H16.4935L7.87682 31.993L5.86016 30.1138L12.5977 23.3763H3.66016V20.6263H12.5977L5.72266 13.7513L7.69349 11.7805L16.4935 20.6263H20.6185V16.4555L12.0018 7.8388L13.9268 5.82214L20.6185 12.5596V3.66797H23.3685V12.5596L30.2435 5.68464L32.1685 7.65547L23.3685 16.4555V20.6263H27.5393L36.2018 11.9638L38.1727 13.8888L31.4352 20.6263H40.3268V23.3763H31.4352L38.2185 30.2055L36.3393 32.1763L27.5393 23.3763H23.3685V27.5013L32.1685 36.3471L30.2893 38.318L23.3685 31.3971V40.3346H20.6185Z"></path></svg>