<svg xmlns="http://www.w3.org/2000/svg" width="28" height="28" viewBox="0 0 28 28" fill="none"><path d="M14.0002 3.49967H18.9002C20.8603 3.49967 21.8404 3.49967 22.5891 3.88115C23.2477 4.21671 23.7831 4.75214 24.1187 5.41071C24.5002 6.1594 24.5002 7.13949 24.5002 9.09967V18.8997C24.5002 20.8599 24.5002 21.84 24.1187 22.5886C23.7831 23.2472 23.2477 23.7826 22.5891 24.1182C21.8404 24.4997 20.8603 24.4997 18.9002 24.4997H9.10016C7.13998 24.4997 6.15989 24.4997 5.4112 24.1182C4.75263 23.7826 4.2172 23.2472 3.88164 22.5886C3.50016 21.84 3.50016 20.8599 3.50016 18.8997V13.9997M9.3335 15.1663V19.833M18.6668 12.833V19.833M14.0002 8.16634V19.833M2.3335 5.83301L5.8335 2.33301M5.8335 2.33301L9.3335 5.83301M5.8335 2.33301L5.8335 9.33301" stroke="white" stroke-width="2" stroke-linecap="round" stroke-linejoin="round"></path></svg>