<svg xmlns="http://www.w3.org/2000/svg" width="28" height="28" viewBox="0 0 28 28" fill="none"><path d="M14.0002 9.33301C11.4228 9.33301 9.3335 11.4223 9.3335 13.9997C9.3335 16.577 11.4228 18.6663 14.0002 18.6663C16.5775 18.6663 18.6668 16.577 18.6668 13.9997C18.6668 11.4223 16.5775 9.33301 14.0002 9.33301ZM14.0002 9.33301H24.6985M4.6085 7.06967L9.9635 16.333M12.6935 25.5963L18.0368 16.333M25.6668 13.9997C25.6668 20.443 20.4435 25.6663 14.0002 25.6663C7.55684 25.6663 2.3335 20.443 2.3335 13.9997C2.3335 7.55635 7.55684 2.33301 14.0002 2.33301C20.4435 2.33301 25.6668 7.55635 25.6668 13.9997Z" stroke="white" stroke-width="2" stroke-linecap="round" stroke-linejoin="round"></path></svg>