<svg xmlns="http://www.w3.org/2000/svg" width="28" height="28" viewBox="0 0 28 28" fill="none"><path d="M9.33333 3.5H7.23333C5.92654 3.5 5.27315 3.5 4.77402 3.75432C4.33498 3.97802 3.97802 4.33498 3.75432 4.77402C3.5 5.27315 3.5 5.92654 3.5 7.23333V9.33333M9.33333 24.5H7.23333C5.92654 24.5 5.27315 24.5 4.77402 24.2457C4.33498 24.022 3.97802 23.665 3.75432 23.226C3.5 22.7269 3.5 22.0735 3.5 20.7667V18.6667M24.5 9.33333V7.23333C24.5 5.92654 24.5 5.27315 24.2457 4.77402C24.022 4.33498 23.665 3.97802 23.226 3.75432C22.7269 3.5 22.0735 3.5 20.7667 3.5H18.6667M24.5 18.6667V20.7667C24.5 22.0735 24.5 22.7269 24.2457 23.226C24.022 23.665 23.665 24.022 23.226 24.2457C22.7269 24.5 22.0735 24.5 20.7667 24.5H18.6667M14 19.8333L14 8.16667M8.16667 14H19.8333" stroke="white" stroke-width="2" stroke-linecap="round" stroke-linejoin="round"></path></svg>