<svg xmlns="http://www.w3.org/2000/svg" width="28" height="28" viewBox="0 0 28 28" fill="none"><path d="M25.6668 19.8333V15.1667C25.6668 8.72334 20.4435 3.5 14.0002 3.5C7.55684 3.5 2.3335 8.72334 2.3335 15.1667V19.8333M8.75016 24.5C7.13933 24.5 5.8335 23.1942 5.8335 21.5833V18.0833C5.8335 16.4725 7.13933 15.1667 8.75016 15.1667C10.361 15.1667 11.6668 16.4725 11.6668 18.0833V21.5833C11.6668 23.1942 10.361 24.5 8.75016 24.5ZM19.2502 24.5C17.6393 24.5 16.3335 23.1942 16.3335 21.5833V18.0833C16.3335 16.4725 17.6393 15.1667 19.2502 15.1667C20.861 15.1667 22.1668 16.4725 22.1668 18.0833V21.5833C22.1668 23.1942 20.861 24.5 19.2502 24.5Z" stroke="white" stroke-width="2" stroke-linecap="round" stroke-linejoin="round"></path></svg>