<svg xmlns="http://www.w3.org/2000/svg" width="14" height="14" viewBox="0 0 14 14" fill="none"><path d="M5.83312 2.33366H4.19979C3.54639 2.33366 3.21945 2.33366 2.96989 2.46082C2.75037 2.57267 2.57202 2.75102 2.46017 2.97054C2.33301 3.2201 2.33301 3.54704 2.33301 4.20044V9.80044C2.33301 10.4538 2.33301 10.7804 2.46017 11.0299C2.57202 11.2494 2.75037 11.4281 2.96989 11.54C3.21921 11.667 3.54575 11.667 4.19787 11.667H9.80148C10.4536 11.667 10.7797 11.667 11.029 11.54C11.2485 11.4281 11.4275 11.2493 11.5393 11.0298C11.6663 10.7804 11.6663 10.4542 11.6663 9.80213V8.16699M9.33301 2.91699L5.83301 6.41699V8.16699H7.58301L11.083 4.66699M9.33301 2.91699L11.083 1.16699L12.833 2.91699L11.083 4.66699M9.33301 2.91699L11.083 4.66699" stroke="white" stroke-width="1.5" stroke-linecap="round" stroke-linejoin="round"></path></svg>