<svg xmlns="http://www.w3.org/2000/svg" width="28" height="28" viewBox="0 0 28 28" fill="none"><path d="M2.3335 13.9997C2.3335 20.443 7.55684 25.6663 14.0002 25.6663C15.9332 25.6663 17.5002 24.0993 17.5002 22.1663V21.583C17.5002 21.0412 17.5002 20.7703 17.5301 20.5428C17.7369 18.9723 18.9728 17.7364 20.5433 17.5296C20.7708 17.4997 21.0417 17.4997 21.5835 17.4997H22.1668C24.0998 17.4997 25.6668 15.9327 25.6668 13.9997C25.6668 7.55635 20.4435 2.33301 14.0002 2.33301C7.55684 2.33301 2.3335 7.55635 2.3335 13.9997Z" stroke="white" stroke-width="2" stroke-linecap="round" stroke-linejoin="round"></path><path d="M8.16683 15.1663C8.81116 15.1663 9.3335 14.644 9.3335 13.9997C9.3335 13.3553 8.81116 12.833 8.16683 12.833C7.5225 12.833 7.00016 13.3553 7.00016 13.9997C7.00016 14.644 7.5225 15.1663 8.16683 15.1663Z" stroke="white" stroke-width="2" stroke-linecap="round" stroke-linejoin="round"></path><path d="M18.6668 10.4997C19.3112 10.4997 19.8335 9.97734 19.8335 9.33301C19.8335 8.68868 19.3112 8.16634 18.6668 8.16634C18.0225 8.16634 17.5002 8.68868 17.5002 9.33301C17.5002 9.97734 18.0225 10.4997 18.6668 10.4997Z" stroke="white" stroke-width="2" stroke-linecap="round" stroke-linejoin="round"></path><path d="M11.6668 9.33301C12.3112 9.33301 12.8335 8.81067 12.8335 8.16634C12.8335 7.52201 12.3112 6.99967 11.6668 6.99967C11.0225 6.99967 10.5002 7.52201 10.5002 8.16634C10.5002 8.81067 11.0225 9.33301 11.6668 9.33301Z" stroke="white" stroke-width="2" stroke-linecap="round" stroke-linejoin="round"></path></svg>