<svg xmlns="http://www.w3.org/2000/svg" width="24" height="24" viewBox="0 0 24 24"><path d="M10.7746 15.75C10.7913 14.55 10.9288 13.675 11.1871 13.125C11.4454 12.575 11.9329 11.975 12.6496 11.325C13.3496 10.6916 13.8871 10.1041 14.2621 9.5625C14.6371 9.02085 14.8246 8.44165 14.8246 7.825C14.8246 7.075 14.5746 6.45 14.0746 5.95C13.5746 5.45 12.8746 5.2 11.9746 5.2C11.1079 5.2 10.4413 5.44585 9.97461 5.9375C9.50791 6.42915 9.16626 6.94165 8.94961 7.475L6.84961 6.55C7.21626 5.56665 7.83711 4.72916 8.71211 4.0375C9.58711 3.34583 10.6746 3 11.9746 3C13.6413 3 14.9246 3.4625 15.8246 4.3875C16.7246 5.3125 17.1746 6.425 17.1746 7.725C17.1746 8.525 17.0038 9.25 16.6621 9.9C16.3204 10.55 15.7746 11.2333 15.0246 11.95C14.2079 12.7333 13.7163 13.3334 13.5496 13.75C13.3829 14.1666 13.2913 14.8334 13.2746 15.75H10.7746ZM11.9746 22C11.4913 22 11.0788 21.8291 10.7371 21.4875C10.3954 21.1458 10.2246 20.7334 10.2246 20.25C10.2246 19.7666 10.3954 19.3542 10.7371 19.0125C11.0788 18.6709 11.4913 18.5 11.9746 18.5C12.4579 18.5 12.8704 18.6709 13.2121 19.0125C13.5538 19.3542 13.7246 19.7666 13.7246 20.25C13.7246 20.7334 13.5538 21.1458 13.2121 21.4875C12.8704 21.8291 12.4579 22 11.9746 22Z"></path></svg>