<svg xmlns="http://www.w3.org/2000/svg" width="105" height="100" viewBox="0 0 105 100"><path d="M3.36842 43.5417V0H44V34.375C44 52.9861 41.7544 66.4583 37.2632 74.7917C31.3684 85.9028 22.0351 94.3056 9.26316 100L0 85.4167C7.7193 82.2222 13.4035 77.4306 17.0526 71.0417C20.7018 64.7917 22.7368 55.625 23.1579 43.5417H3.36842Z"></path><path d="M64.3684 43.5417V0H105V34.375C105 52.9861 102.754 66.4583 98.2632 74.7917C92.3684 85.9028 83.0351 94.3056 70.2632 100L61 85.4167C68.7193 82.2222 74.4035 77.4306 78.0526 71.0417C81.7018 64.7917 83.7368 55.625 84.1579 43.5417H64.3684Z"></path></svg>