<svg xmlns="http://www.w3.org/2000/svg" width="36" height="36" viewBox="0 0 36 36" fill="none"><path d="M18 22.4999L13.5 17.9999M18 22.4999C20.0953 21.703 22.1053 20.698 24 19.4999M18 22.4999V29.9999C18 29.9999 22.545 29.1749 24 26.9999C25.62 24.5699 24 19.4999 24 19.4999M13.5 17.9999C14.2982 15.929 15.3033 13.944 16.5 12.0749C18.2478 9.28036 20.6814 6.97946 23.5695 5.39102C26.4576 3.80258 29.704 2.97944 33 2.99988C33 7.07988 31.83 14.2499 24 19.4999M13.5 17.9999H6C6 17.9999 6.825 13.4549 9 11.9999C11.43 10.3799 16.5 11.9999 16.5 11.9999M6.75 24.7499C4.5 26.6399 3.75 32.2499 3.75 32.2499C3.75 32.2499 9.36 31.4999 11.25 29.2499C12.315 27.9899 12.3 26.0549 11.115 24.8849C10.532 24.3284 9.76394 24.0068 8.95834 23.9819C8.15274 23.957 7.36631 24.2305 6.75 24.7499Z" stroke="#FE5631" stroke-width="2.75" stroke-linecap="round" stroke-linejoin="round"></path></svg>