<svg xmlns="http://www.w3.org/2000/svg" width="40" height="40" viewBox="0 0 40 40"><g clip-path="url(#clip0_2028_4963)"><path d="M39.6339 24.1162L35.8839 20.3662C35.3956 19.8779 34.6046 19.8779 34.1162 20.3662L22.5 31.9824V37.5001H28.0176L39.6339 25.8838C40.1221 25.3956 40.1221 24.6046 39.6339 24.1162ZM26.9825 34.9999H25.0001V33.0176L31.2501 26.7676L33.2325 28.7499L26.9825 34.9999ZM35.0001 26.9823L33.0177 24.9999L35.0001 23.0176L36.9825 24.9999L35.0001 26.9823Z"></path><path d="M20 27.5C15.7946 27.5 12.5 24.2054 12.5 20C12.5 15.7946 15.7946 12.5 20 12.5C24.2054 12.5 27.5 15.7946 27.5 20C27.5 24.2054 24.2054 27.5 20 27.5ZM20 15C17.1496 15 15 17.1496 15 20C15 22.8504 17.1496 25 20 25C22.8504 25 25 22.8504 25 20C25 17.1496 22.8504 15 20 15Z"></path><path d="M34.4314 15.0006L36.5966 13.7506L33.6774 8.69513C33.2209 7.90413 32.3856 7.4445 31.5121 7.4445C31.2454 7.4445 30.9754 7.48725 30.7114 7.577L27.6688 8.606C27.1463 8.2545 26.5988 7.937 26.0288 7.65813L25.3991 4.50988C25.1654 3.341 24.1394 2.5 22.9476 2.5H17.0468C15.855 2.5 14.829 3.34112 14.5953 4.50988L13.9656 7.65813C13.3919 7.93888 12.8329 8.24463 12.3073 8.59988L9.28302 7.57688C9.01902 7.48713 8.74902 7.44438 8.48227 7.44438C7.60889 7.44438 6.77364 7.904 6.31702 8.695L3.36627 13.8049C2.77052 14.837 2.98602 16.1461 3.88114 16.9329L6.29477 19.0539C6.27339 19.3683 6.24714 19.6808 6.24714 19.9999C6.24714 20.3221 6.26002 20.6408 6.28189 20.9569L3.88102 23.0669C2.98589 23.8536 2.77052 25.1629 3.36614 26.1949L6.31689 31.3048C6.77339 32.0958 7.60864 32.5554 8.48214 32.5554C8.74889 32.5554 9.01927 32.5126 9.28289 32.4229L12.3255 31.3939C12.848 31.746 13.3955 32.0629 13.9655 32.3418L14.5951 35.49C14.8289 36.6589 15.8549 37.4999 17.0466 37.4999H19.9971V34.9999H17.0466L16.1589 30.5614C14.9398 30.1164 13.7806 29.4286 12.7904 28.5973L8.48189 30.0548L5.53139 24.9449L8.93802 21.9511C8.70827 20.6474 8.69877 19.3474 8.92914 18.0413L5.53127 15.0548L8.48264 9.94488L12.7661 11.3939C13.7701 10.5485 14.928 9.8875 16.1588 9.43825L17.0465 4.99975H22.9474L23.8351 9.43825C25.0543 9.88325 26.213 10.571 27.2036 11.4024L31.5121 9.94488L34.4314 15.0006Z"></path></g><defs><clipPath id="clip0_2028_4963"><rect width="40" height="40"></rect></clipPath></defs></svg>