<svg xmlns="http://www.w3.org/2000/svg" width="18" height="18" viewBox="0 0 18 18" fill="none"><path d="M11.9997 6C11.9997 6.79565 11.6836 7.55871 11.121 8.12132C10.5584 8.68393 9.79534 9 8.99969 9C8.20404 9 7.44098 8.68393 6.87837 8.12132C6.31576 7.55871 5.99969 6.79565 5.99969 6M2.7246 5.55104L2.19961 11.851C2.08682 13.2044 2.03043 13.8811 2.2592 14.4031C2.46021 14.8618 2.80846 15.2403 3.24883 15.4787C3.75004 15.75 4.42909 15.75 5.78717 15.75H12.2122C13.5703 15.75 14.2493 15.75 14.7506 15.4787C15.1909 15.2403 15.5392 14.8618 15.7402 14.4031C15.969 13.8811 15.9126 13.2044 15.7998 11.851L15.2748 5.55104C15.1777 4.38656 15.1292 3.80433 14.8713 3.36364C14.6443 2.97558 14.3061 2.66445 13.9006 2.47038C13.44 2.25 12.8557 2.25 11.6872 2.25L6.31217 2.25C5.14366 2.25 4.5594 2.25 4.09883 2.47038C3.69325 2.66445 3.35511 2.97558 3.12804 3.36364C2.87016 3.80432 2.82164 4.38656 2.7246 5.55104Z" stroke="#FE5631" stroke-width="1.25" stroke-linecap="round" stroke-linejoin="round"></path></svg>