<svg xmlns="http://www.w3.org/2000/svg" width="24" height="24" viewBox="0 0 24 24"><path d="M7.65 10.925C7.93335 10.925 8.17085 10.8292 8.3625 10.6375C8.55415 10.4458 8.65 10.2084 8.65 9.925C8.65 9.64165 8.55415 9.40415 8.3625 9.2125C8.17085 9.02085 7.93335 8.925 7.65 8.925C7.36665 8.925 7.12915 9.02085 6.9375 9.2125C6.74585 9.40415 6.65 9.64165 6.65 9.925C6.65 10.2084 6.74585 10.4458 6.9375 10.6375C7.12915 10.8292 7.36665 10.925 7.65 10.925ZM12.075 10.925C12.3583 10.925 12.5958 10.8292 12.7875 10.6375C12.9792 10.4458 13.075 10.2084 13.075 9.925C13.075 9.64165 12.9792 9.40415 12.7875 9.2125C12.5958 9.02085 12.3583 8.925 12.075 8.925C11.7916 8.925 11.5542 9.02085 11.3625 9.2125C11.1708 9.40415 11.075 9.64165 11.075 9.925C11.075 10.2084 11.1708 10.4458 11.3625 10.6375C11.5542 10.8292 11.7916 10.925 12.075 10.925ZM16.325 10.925C16.6084 10.925 16.8458 10.8292 17.0375 10.6375C17.2292 10.4458 17.325 10.2084 17.325 9.925C17.325 9.64165 17.2292 9.40415 17.0375 9.2125C16.8458 9.02085 16.6084 8.925 16.325 8.925C16.0417 8.925 15.8042 9.02085 15.6125 9.2125C15.4208 9.40415 15.325 9.64165 15.325 9.925C15.325 10.2084 15.4208 10.4458 15.6125 10.6375C15.8042 10.8292 16.0417 10.925 16.325 10.925ZM2 22V2H22V18H6L2 22ZM5.35 16.5H20.5V3.5H3.5V18.5L5.35 16.5Z"></path></svg>