<svg xmlns="http://www.w3.org/2000/svg" width="28" height="28" viewBox="0 0 28 28" fill="none"><path d="M15.0654 19.8333H23.4349M15.0654 19.8333L12.8335 24.5M15.0654 19.8333L18.4082 12.8439C18.6775 12.2807 18.8122 11.999 18.9965 11.9101C19.1568 11.8327 19.3436 11.8327 19.5038 11.9101C19.6881 11.999 19.8228 12.2807 20.0922 12.8439L23.4349 19.8333M23.4349 19.8333L25.6668 24.5M2.3335 5.83333H9.3335M9.3335 5.83333H13.4168M9.3335 5.83333V3.5M13.4168 5.83333H16.3335M13.4168 5.83333C12.838 9.2835 11.4948 12.4089 9.52664 15.0318M11.6668 16.3333C10.9522 16.0123 10.2233 15.5658 9.52664 15.0318M9.52664 15.0318C7.94869 13.8224 6.53672 12.1644 5.8335 10.5M9.52664 15.0318C7.6545 17.5268 5.21684 19.5671 2.3335 21" stroke="white" stroke-width="2" stroke-linecap="round" stroke-linejoin="round"></path></svg>