<svg xmlns="http://www.w3.org/2000/svg" width="24" height="24" viewBox="0 0 24 24" fill="none"><path d="M4 4.84211C4 4.37702 4.37702 4 4.84211 4H7.36842C7.8335 4 8.21053 4.37702 8.21053 4.84211V7.36842C8.21053 7.8335 7.8335 8.21053 7.36842 8.21053H4.84211C4.37702 8.21053 4 7.8335 4 7.36842V4.84211Z" fill="white"></path><path d="M15.7895 4.84211C15.7895 4.37702 16.1665 4 16.6316 4H19.1579C19.623 4 20 4.37702 20 4.84211V7.36842C20 7.8335 19.623 8.21053 19.1579 8.21053H16.6316C16.1665 8.21053 15.7895 7.8335 15.7895 7.36842V4.84211Z" fill="white"></path><path d="M4 16.6316C4 16.1665 4.37702 15.7895 4.84211 15.7895H7.36842C7.8335 15.7895 8.21053 16.1665 8.21053 16.6316V19.1579C8.21053 19.623 7.8335 20 7.36842 20H4.84211C4.37702 20 4 19.623 4 19.1579V16.6316Z" fill="white"></path><path d="M15.7895 16.6316C15.7895 16.1665 16.1665 15.7895 16.6316 15.7895H19.1579C19.623 15.7895 20 16.1665 20 16.6316V19.1579C20 19.623 19.623 20 19.1579 20H16.6316C16.1665 20 15.7895 19.623 15.7895 19.1579V16.6316Z" fill="white"></path><path d="M17.8947 15.7895V8.21053M15.7895 17.8947H8.63158M6.10526 15.5789V8.42105M8.21053 6.10526H15.5789M4.84211 8.21053H7.36842C7.8335 8.21053 8.21053 7.8335 8.21053 7.36842V4.84211C8.21053 4.37702 7.8335 4 7.36842 4H4.84211C4.37702 4 4 4.37702 4 4.84211V7.36842C4 7.8335 4.37702 8.21053 4.84211 8.21053ZM16.6316 8.21053H19.1579C19.623 8.21053 20 7.8335 20 7.36842V4.84211C20 4.37702 19.623 4 19.1579 4H16.6316C16.1665 4 15.7895 4.37702 15.7895 4.84211V7.36842C15.7895 7.8335 16.1665 8.21053 16.6316 8.21053ZM4.84211 20H7.36842C7.8335 20 8.21053 19.623 8.21053 19.1579V16.6316C8.21053 16.1665 7.8335 15.7895 7.36842 15.7895H4.84211C4.37702 15.7895 4 16.1665 4 16.6316V19.1579C4 19.623 4.37702 20 4.84211 20ZM16.6316 20H19.1579C19.623 20 20 19.623 20 19.1579V16.6316C20 16.1665 19.623 15.7895 19.1579 15.7895H16.6316C16.1665 15.7895 15.7895 16.1665 15.7895 16.6316V19.1579C15.7895 19.623 16.1665 20 16.6316 20Z" stroke="white" stroke-width="1.5" stroke-linecap="round"></path></svg>