<svg xmlns="http://www.w3.org/2000/svg" width="43" height="40" viewBox="0 0 43 40"><g clip-path="url(#clip0_2108_1256)"><path d="M3.30347 17.1323C3.71017 15.3021 5.33342 14 7.20822 14H11.9995L7.99953 32H4.986C2.42701 32 0.526127 29.6303 1.08125 27.1323L3.30347 17.1323Z"></path><path d="M39.2852 8H21.2861L20.6777 10.8384C20.2824 12.6825 18.6526 14 16.7666 14H12L14.3216 3.16214C14.7167 1.31774 16.3467 0 18.2329 0H36.0513C38.5978 0 40.496 2.34793 39.9626 4.83792L39.2852 8Z"></path><path d="M30.9617 36.8379C30.5666 38.6823 28.9367 40 27.0504 40H11.232C8.6855 40 6.7873 37.6521 7.32074 35.1621L7.99816 32H31.9981L30.9617 36.8379Z"></path><path d="M38.6269 17C41.2292 17 43.1386 19.4456 42.5075 21.9701L40.7575 28.9701C40.3123 30.7508 38.7124 32 36.8769 32H32L33.75 25H14L15.0364 20.1621C15.4316 18.3177 17.0615 17 18.9477 17H38.6269Z"></path></g><defs><clipPath id="clip0_2108_1256"><rect width="43" height="40" fill="white"></rect></clipPath></defs></svg>