<svg xmlns="http://www.w3.org/2000/svg" width="15" height="14" viewBox="0 0 15 14"><path d="M2.8125 0.125L2.61719 0.378906L0.625 3.03516V13.875H14.375V3.03516L12.3828 0.378906L12.1875 0.125H2.8125ZM3.4375 1.375H6.875V2.625H2.5L3.4375 1.375ZM8.125 1.375H11.5625L12.5 2.625H8.125V1.375ZM1.875 3.875H13.125V12.625H1.875V3.875ZM5.50781 5.125C5.16357 5.15674 4.90967 5.46436 4.94141 5.80859C4.97314 6.15283 5.28076 6.40674 5.625 6.375H9.375C9.59961 6.37744 9.80957 6.26025 9.92432 6.06494C10.0366 5.86963 10.0366 5.63037 9.92432 5.43506C9.80957 5.23975 9.59961 5.12256 9.375 5.125H5.625C5.60547 5.125 5.58594 5.125 5.56641 5.125C5.54688 5.125 5.52734 5.125 5.50781 5.125Z"></path></svg>