<svg xmlns="http://www.w3.org/2000/svg" width="14" height="14" viewBox="0 0 14 14"><path d="M9.625 1.3125C8.18091 1.3125 7 2.49341 7 3.9375C7 4.37158 7.16748 4.81421 7.38281 5.30469C7.59814 5.79517 7.86987 6.3147 8.14844 6.79492C8.70557 7.75537 9.26953 8.55859 9.26953 8.55859L9.625 9.07812L9.98047 8.55859C9.98047 8.55859 10.5444 7.75537 11.1016 6.79492C11.3801 6.3147 11.6519 5.79517 11.8672 5.30469C12.0825 4.81421 12.25 4.37158 12.25 3.9375C12.25 2.49341 11.0691 1.3125 9.625 1.3125ZM5.23633 2.16016L1.75 3.65039V12.0449L5.26367 10.5273L8.76367 11.8398L12.25 10.3496V6.53516C11.9714 7.07007 11.6621 7.58276 11.375 8.03906V9.77539L9.1875 10.7051V9.99414L8.54492 9.06445C8.47656 8.96533 8.39624 8.84741 8.3125 8.72266V10.7461L5.6875 9.76172V3.25391L6.16602 3.43164C6.20874 3.13599 6.28564 2.85059 6.39844 2.58398L5.23633 2.16016ZM9.625 2.1875C10.5957 2.1875 11.375 2.9668 11.375 3.9375C11.375 4.10669 11.269 4.50659 11.0742 4.94922C10.8794 5.39185 10.6042 5.89429 10.3359 6.35742C9.97876 6.97266 9.82495 7.19141 9.625 7.49219C9.42505 7.19141 9.27124 6.97266 8.91406 6.35742C8.64575 5.89429 8.37061 5.39185 8.17578 4.94922C7.98096 4.50659 7.875 4.10669 7.875 3.9375C7.875 2.9668 8.6543 2.1875 9.625 2.1875ZM4.8125 3.28125V9.77539L2.625 10.7051V4.22461L4.8125 3.28125ZM9.625 3.28125C9.2627 3.28125 8.96875 3.5752 8.96875 3.9375C8.96875 4.2998 9.2627 4.59375 9.625 4.59375C9.9873 4.59375 10.2812 4.2998 10.2812 3.9375C10.2812 3.5752 9.9873 3.28125 9.625 3.28125Z"></path></svg>