<svg xmlns="http://www.w3.org/2000/svg" width="188" height="103" viewBox="0 0 188 103" fill="none"><path d="M105.363 130.156L140.484 65.3333L159.593 60.2292C157.527 64.3125 155.117 67.7153 152.363 70.4375C149.264 73.1597 145.993 74.5208 142.549 74.5208C134.63 74.5208 127.399 71.1181 120.857 64.3125C113.971 57.8472 110.527 49.5104 110.527 39.3021C110.527 28.7535 114.315 19.566 121.89 11.7396C129.465 3.9132 138.59 1.09392e-05 149.264 1.18724e-05C159.593 1.27754e-05 168.718 3.74306 176.637 11.2292C184.212 19.0556 188 28.4132 188 39.3021C188 43.7257 187.139 48.8299 185.418 54.6146C183.352 60.7396 179.908 68.3959 175.088 77.5834L136.868 147L105.363 130.156ZM-1.37863e-05 130.156L35.1209 65.3333L54.2308 60.2292C52.1648 64.3125 49.7546 67.7153 47 70.4375C43.9011 73.1597 40.63 74.5208 37.1868 74.5208C29.2674 74.5208 22.0366 71.118 15.4945 64.3125C8.60807 57.8472 5.16483 49.5104 5.16483 39.3021C5.16484 28.7535 8.95237 19.566 16.5275 11.7396C24.1026 3.91319 33.2271 1.72811e-06 43.9011 2.66126e-06C54.2308 3.56431e-06 63.3553 3.74305 71.2747 11.2292C78.8498 19.0555 82.6374 28.4132 82.6374 39.3021C82.6374 43.7257 81.7766 48.8299 80.055 54.6146C77.989 60.7396 74.5458 68.3958 69.7253 77.5833L31.5055 147L-1.37863e-05 130.156Z" fill="url(#paint0_linear_2117_4002)" fill-opacity="0.1"></path><defs><linearGradient id="paint0_linear_2117_4002" x1="94" y1="7.04105e-06" x2="94" y2="147" gradientUnits="userSpaceOnUse"><stop stop-color="white"></stop><stop offset="1" stop-color="white" stop-opacity="0"></stop></linearGradient></defs></svg>