<svg xmlns="http://www.w3.org/2000/svg" width="14" height="14" viewBox="0 0 14 14"><path d="M7 1.75C4.76294 1.75 2.89502 3.13257 2.13281 5.08594L2.93945 5.41406C3.5769 3.78027 5.12354 2.625 7 2.625C8.41846 2.625 9.68311 3.32056 10.4727 4.375H8.75V5.25H11.8125V2.1875H10.9375V3.54102C9.97876 2.44214 8.56201 1.75 7 1.75ZM11.0605 8.58594C10.4231 10.2197 8.87646 11.375 7 11.375C5.56616 11.375 4.30664 10.6692 3.51367 9.625H5.25V8.75H2.1875V11.8125H3.0625V10.459C4.01953 11.5442 5.42261 12.25 7 12.25C9.23706 12.25 11.105 10.8674 11.8672 8.91406L11.0605 8.58594Z"></path></svg>