<svg xmlns="http://www.w3.org/2000/svg" width="14" height="14" viewBox="0 0 14 14" fill="none"><path d="M1.75 6.41663H2.35986M2.35986 6.41663H11.6401M2.35986 6.41663C2.36636 6.3866 2.37403 6.35684 2.38289 6.32744C2.40404 6.25727 2.43391 6.1898 2.49398 6.05465L3.39596 4.02519C3.5743 3.62394 3.66361 3.42319 3.80456 3.27608C3.92914 3.14605 4.08195 3.04671 4.25138 2.98568C4.44306 2.91663 4.66279 2.91663 5.10189 2.91663H8.89792C9.33701 2.91663 9.55695 2.91663 9.74863 2.98568C9.91806 3.04671 10.0706 3.14605 10.1952 3.27608C10.3361 3.42309 10.4252 3.62367 10.6033 4.02438L11.5089 6.06204C11.5668 6.19228 11.5963 6.25856 11.6171 6.32744C11.6259 6.35684 11.6336 6.3866 11.6401 6.41663M2.35986 6.41663C2.35259 6.45025 2.34681 6.48419 2.3425 6.51831C2.33333 6.59102 2.33333 6.66494 2.33333 6.81283V9.91663M11.6401 6.41663H12.25M11.6401 6.41663C11.6474 6.45025 11.6532 6.48419 11.6576 6.51831C11.6667 6.59058 11.6667 6.66406 11.6667 6.81017V9.91669M11.6667 9.91669L9.33333 9.91667M11.6667 9.91669V10.4999C11.6667 11.1442 11.1443 11.6666 10.5 11.6666C9.85567 11.6666 9.33333 11.1443 9.33333 10.5V9.91667M9.33333 9.91667L4.66667 9.91663M4.66667 9.91663H2.33333M4.66667 9.91663V10.5C4.66667 11.1443 4.14433 11.6666 3.5 11.6666C2.85567 11.6666 2.33333 11.1443 2.33333 10.5V9.91663" stroke="white" stroke-width="1.5" stroke-linecap="round" stroke-linejoin="round"></path></svg>