<svg xmlns="http://www.w3.org/2000/svg" width="20" height="20" viewBox="0 0 20 20"><path d="M17.7891 0C17.2676 0 16.541 0.0234375 15.7734 0.09375C14.2383 0.237304 12.4658 0.495117 11.3672 1.59375C10.4443 2.5166 8.53711 4.96582 6.77344 7.26562C6.4248 7.71973 6.43945 7.71094 6.11719 8.13281L4.82812 8.0625C3.87012 8.0127 2.94727 8.41699 2.34375 9.16406L0.773438 11.0859L0 12.0703L1.21875 12.3047L3.67969 12.7969L6.5625 15.6797L7.05469 18.1406L7.3125 19.3594L8.27344 18.5859L10.1953 17.0156C10.9424 16.4121 11.3467 15.4893 11.2969 14.5312L11.2266 13.2656C11.6631 12.9346 11.6484 12.9434 12.1172 12.5859C14.4229 10.8193 16.8809 8.92383 17.7891 8.01562C18.8789 6.92578 19.1221 5.12695 19.2656 3.58594C19.4092 2.04492 19.3359 0.726562 19.3359 0.726562L19.3125 0.046875L18.6328 0.0234375C18.6328 0.0234375 18.3105 0 17.7891 0ZM17.1094 1.5C17.4082 1.5 17.6191 1.51758 17.8359 1.52344C17.8447 1.95996 17.8623 2.41406 17.7656 3.44531C17.6338 4.86621 17.2002 6.44824 16.7109 6.9375C16.043 7.60547 13.5 9.62988 11.2031 11.3906C9.17285 12.9463 7.74316 14.0391 7.33594 14.3438L5.03906 12.0469C5.34668 11.6338 6.39844 10.1982 7.94531 8.17969C9.70312 5.88867 11.7334 3.33691 12.4219 2.64844C12.9346 2.13574 14.499 1.70215 15.9141 1.57031C16.4268 1.52344 16.8105 1.5 17.1094 1.5ZM13.6875 4.14844C12.8496 4.14844 12.1875 4.83398 12.1875 5.67188C12.1875 6.50977 12.8496 7.19531 13.6875 7.19531C14.5254 7.19531 15.2109 6.50977 15.2109 5.67188C15.2109 4.83398 14.5254 4.14844 13.6875 4.14844ZM4.73438 9.5625L5.01562 9.58594C4.56445 10.1836 3.82617 11.1416 3.72656 11.2734L2.71875 11.0625L3.49219 10.125C3.79395 9.75293 4.25391 9.53613 4.73438 9.5625ZM3.02344 13.4531C2.38184 14.0947 2.01562 14.9824 1.75781 15.7266C1.5 16.4707 1.38281 17.0859 1.38281 17.0859L1.14844 18.1875L2.25 17.9766C2.25 17.9766 2.84766 17.874 3.58594 17.625C4.32422 17.376 5.21191 17.0068 5.88281 16.3359L4.82812 15.2812C4.49414 15.6152 3.83203 15.9082 3.23438 16.125C3.46289 15.501 3.79688 14.792 4.07812 14.5078L3.02344 13.4531ZM9.77344 14.3438L9.79688 14.625C9.82324 15.1055 9.63281 15.5654 9.25781 15.8672L8.29688 16.6406L8.08594 15.6328C8.21777 15.5361 9.17578 14.792 9.77344 14.3438Z"></path></svg>