<svg xmlns="http://www.w3.org/2000/svg" width="19" height="14" viewBox="0 0 19 14"><path d="M6.63713 10.8333C6.43495 12.2468 5.21937 13.3333 3.75 13.3333C2.28063 13.3333 1.06505 12.2468 0.862867 10.8333H0V0.833333C0 0.3731 0.3731 0 0.833333 0H12.5C12.9603 0 13.3333 0.3731 13.3333 0.833333V2.5H15.8333L18.3333 5.87975V10.8333H16.6372C16.4349 12.2468 15.2193 13.3333 13.75 13.3333C12.2807 13.3333 11.0651 12.2468 10.8628 10.8333H6.63713ZM11.6667 1.66667H1.66667V8.37542C2.19605 7.83517 2.93388 7.5 3.75 7.5C4.9135 7.5 5.91788 8.18125 6.38598 9.16667H11.114C11.2537 8.8725 11.4413 8.60533 11.6667 8.37542V1.66667ZM13.3333 6.66667H16.6667V6.42917L14.9931 4.16667H13.3333V6.66667ZM13.75 11.6667C14.2943 11.6667 14.7573 11.3188 14.9288 10.8333C14.9749 10.703 15 10.5628 15 10.4167C15 9.72633 14.4403 9.16667 13.75 9.16667C13.0597 9.16667 12.5 9.72633 12.5 10.4167C12.5 10.5628 12.5251 10.703 12.5712 10.8333C12.7428 11.3188 13.2058 11.6667 13.75 11.6667ZM5 10.4167C5 9.72633 4.44036 9.16667 3.75 9.16667C3.05964 9.16667 2.5 9.72633 2.5 10.4167C2.5 10.5628 2.52507 10.703 2.57113 10.8333C2.74273 11.3188 3.20574 11.6667 3.75 11.6667C4.29426 11.6667 4.75728 11.3188 4.92887 10.8333C4.97493 10.703 5 10.5628 5 10.4167Z"></path></svg>