<svg xmlns="http://www.w3.org/2000/svg" width="32" height="32" viewBox="0 0 32 32"><path d="M16.0003 29.3334C8.63653 29.3334 2.66699 23.3638 2.66699 16.0001C2.66699 8.63628 8.63653 2.66675 16.0003 2.66675C23.3641 2.66675 29.3337 8.63628 29.3337 16.0001C29.3337 23.3638 23.3641 29.3334 16.0003 29.3334ZM12.947 26.2233C11.6636 23.5013 10.8768 20.499 10.7034 17.3334H5.41618C5.94433 21.5687 8.95551 25.033 12.947 26.2233ZM13.3746 17.3334C13.5751 20.5851 14.5041 23.6397 16.0003 26.3361C17.4966 23.6397 18.4255 20.5851 18.6261 17.3334H13.3746ZM26.5845 17.3334H21.2973C21.1239 20.499 20.3371 23.5013 19.0537 26.2233C23.0451 25.033 26.0563 21.5687 26.5845 17.3334ZM5.41618 14.6667H10.7034C10.8768 11.5011 11.6636 8.49884 12.947 5.77683C8.95551 6.96719 5.94433 10.4314 5.41618 14.6667ZM13.3746 14.6667H18.6261C18.4255 11.415 17.4966 8.36041 16.0003 5.66407C14.5041 8.36041 13.5751 11.415 13.3746 14.6667ZM19.0537 5.77683C20.3371 8.49884 21.1239 11.5011 21.2973 14.6667H26.5845C26.0563 10.4314 23.0451 6.96719 19.0537 5.77683Z"></path></svg>