<svg xmlns="http://www.w3.org/2000/svg" width="32" height="32" viewBox="0 0 32 32"><path d="M29.3337 22.6694C29.3323 26.4973 26.6425 29.6966 23.0499 30.482L22.1993 27.93C23.8046 27.668 25.169 26.6893 25.9535 25.3332H22.667C21.1942 25.3332 20.0003 24.1393 20.0003 22.6665V17.3332C20.0003 15.8604 21.1942 14.6665 22.667 14.6665H26.5845C25.9283 9.40476 21.4398 5.33317 16.0003 5.33317C10.5608 5.33317 6.07231 9.40476 5.41618 14.6665H9.33366C10.8064 14.6665 12.0003 15.8604 12.0003 17.3332V22.6665C12.0003 24.1393 10.8064 25.3332 9.33366 25.3332H5.33366C3.8609 25.3332 2.66699 24.1393 2.66699 22.6665V15.9998C2.66699 8.63604 8.63653 2.6665 16.0003 2.6665C23.3641 2.6665 29.3337 8.63604 29.3337 15.9998V17.3314V17.3332V22.6665V22.6694ZM26.667 22.6665V17.3332H22.667V22.6665H26.667ZM5.33366 17.3332V22.6665H9.33366V17.3332H5.33366Z"></path></svg>