<svg xmlns="http://www.w3.org/2000/svg" width="17" height="18" viewBox="0 0 17 18"><path d="M1.66667 7.83333V2.5C1.66667 2.03977 2.03977 1.66667 2.5 1.66667H6.66667V0H10V1.66667H14.1667C14.6269 1.66667 15 2.03977 15 2.5V7.83333L15.9047 8.10475C16.3312 8.23267 16.5818 8.67317 16.4738 9.10508L15.2097 14.1615C15.1402 14.1649 15.0703 14.1667 15 14.1667C14.5182 14.1667 14.0554 14.0849 13.6249 13.9344L14.6667 9.475L8.33333 7.5L2 9.475L3.04173 13.9344C2.61123 14.0849 2.1485 14.1667 1.66667 14.1667C1.59637 14.1667 1.52648 14.1649 1.45704 14.1615L0.192933 9.10508C0.0849583 8.67317 0.335517 8.23267 0.761925 8.10475L1.66667 7.83333ZM3.33333 7.33333L8.33333 5.83333L13.3333 7.33333V3.33333H3.33333V7.33333ZM1.66667 15.8333C2.94726 15.8333 4.11541 15.3519 5 14.5602C5.88459 15.3519 7.05275 15.8333 8.33333 15.8333C9.61392 15.8333 10.7821 15.3519 11.6667 14.5602C12.5513 15.3519 13.7194 15.8333 15 15.8333H16.6667V17.5H15C13.7858 17.5 12.6473 17.1753 11.6667 16.6081C10.6861 17.1753 9.54758 17.5 8.33333 17.5C7.11908 17.5 5.98058 17.1753 5 16.6081C4.01943 17.1753 2.88096 17.5 1.66667 17.5H0V15.8333H1.66667Z"></path></svg>