<svg xmlns="http://www.w3.org/2000/svg" width="15" height="16" viewBox="0 0 15 16"><path d="M11.8333 14.1667L13.3333 15.4167V15.8333H1.66667V15.4167L3.16667 14.1667H1.66667C0.746192 14.1667 0 13.4205 0 12.5V3.33333C0 1.49238 1.49238 0 3.33333 0H11.6667C13.5076 0 15 1.49238 15 3.33333V12.5C15 13.4205 14.2538 14.1667 13.3333 14.1667H11.8333ZM3.33333 1.66667C2.41286 1.66667 1.66667 2.41286 1.66667 3.33333V12.5H13.3333V3.33333C13.3333 2.41286 12.5872 1.66667 11.6667 1.66667H3.33333ZM7.5 11.6667C6.5795 11.6667 5.83333 10.9205 5.83333 10C5.83333 9.0795 6.5795 8.33333 7.5 8.33333C8.4205 8.33333 9.16667 9.0795 9.16667 10C9.16667 10.9205 8.4205 11.6667 7.5 11.6667ZM2.5 3.33333H12.5V6.66667H2.5V3.33333Z"></path></svg>