<svg xmlns="http://www.w3.org/2000/svg" width="32" height="32" viewBox="0 0 32 32"><path d="M16.0003 2.6665C23.3603 2.6665 29.3337 8.63984 29.3337 15.9998C29.3337 23.3598 23.3603 29.3332 16.0003 29.3332C8.64033 29.3332 2.66699 23.3598 2.66699 15.9998C2.66699 8.63984 8.64033 2.6665 16.0003 2.6665ZM16.0003 26.6665C21.8937 26.6665 26.667 21.8932 26.667 15.9998C26.667 10.1065 21.8937 5.33317 16.0003 5.33317C10.107 5.33317 5.33366 10.1065 5.33366 15.9998C5.33366 21.8932 10.107 26.6665 16.0003 26.6665ZM20.7143 9.40017L22.5999 11.2858L16.0003 17.8854L14.1147 15.9998L20.7143 9.40017Z"></path></svg>