<svg xmlns="http://www.w3.org/2000/svg" width="244" height="176" viewBox="0 0 244 176"><path d="M185.446 192.439L165.443 192.439C158.237 192.439 152.396 186.598 152.396 179.392L152.396 148.85C152.396 141.645 158.237 135.803 165.443 135.803L182.386 135.803C195.238 135.803 201.359 132.15 201.359 116.925C201.359 111.207 196.724 106.572 191.006 106.572L162.383 106.572C155.177 106.572 149.336 100.731 149.336 93.5255L149.336 13.0467C149.336 5.8412 155.177 -5.44289e-06 162.383 -6.07282e-06L254.411 -1.41182e-05C261.617 -1.47481e-05 267.458 5.8412 267.458 13.0467L267.458 116.316C267.458 167.471 237.468 192.439 185.446 192.439ZM36.1103 192.439L16.7194 192.439C9.51392 192.439 3.6727 186.598 3.6727 179.392L3.6727 148.85C3.67269 141.645 9.51388 135.803 16.7194 135.803L33.6622 135.803C46.5148 135.803 52.0231 132.15 52.0231 116.925C52.0231 111.207 47.388 106.572 41.6704 106.572L13.0472 106.572C5.8417 106.572 0.000480264 100.731 0.000479634 93.5255L0.000472598 13.0467C0.000471968 5.84121 5.84169 7.61243e-06 13.0472 6.98251e-06L105.688 -1.11639e-06C112.893 -1.74631e-06 118.734 5.84121 118.734 13.0467L118.734 116.316C118.734 167.471 88.133 192.439 36.1103 192.439Z"></path></svg>